# AST/ASF file generated using VICON BodyLanguage
# -----------------------------------------------
:version 1.10
:name VICON
:units
  mass 1.0
  length 0.45
  angle deg
:documentation
   .ast/.asf automatically generated from VICON data using
   VICON BodyBuilder and BodyLanguage model FoxedUp or BRILLIANT.MOD
:root
   order TX TY TZ RX RY RZ
   axis XYZ
   position 0 0 0  
   orientation 0 0 0 
:bonedata
  begin
     id 1 
     name lhipjoint
     direction 0.558404 -0.748506 0.357664 
     length 2.4234 
     axis 0 0 0  XYZ
  end
  begin
     id 2 
     name lfemur
     direction 0.34202 -0.939693 0  
     length 7.14567  
     axis 0 0 20  XYZ
    dof rx ry rz
    limits (-160.0 20.0)
           (-70.0 70.0)
           (-60.0 70.0)
  end
  begin
     id 3 
     name ltibia
     direction 0.34202 -0.939693 0   
     length 8.13956   
     axis 0 0 20   XYZ
    dof rx
    limits (-10.0 170.0)
  end
  begin
     id 4 
     name lfoot
     direction 0.0791314 -0.217412 0.972867   
     length 2.00134   
     axis -90 7.62852e-016 20   XYZ
    dof rx rz
    limits (-45.0 90.0)
           (-70.0 20.0)
  end
  begin
     id 5 
     name ltoes
     direction 1.53547e-011 -4.21922e-011 1   
     length 1.00735   
     axis -90 7.62852e-016 20   XYZ
    dof rx
    limits (-90.0 20.0)
  end
  begin
     id 6 
     name rhipjoint
     direction -0.496392 -0.78327 0.374276   
     length 2.31584  
     axis 0 0 0  XYZ 
  end
  begin
     id 7 
     name rfemur
     direction -0.34202 -0.939693 0   
     length 7.47417   
     axis 0 0 -20   XYZ
    dof rx ry rz
    limits (-160.0 20.0)
           (-70.0 70.0)
           (-70.0 60.0)
  end
  begin
     id 8 
     name rtibia
     direction -0.34202 -0.939693 0   
     length 7.69071   
     axis 0 0 -20   XYZ
    dof rx
    limits (-10.0 170.0)
 end
 begin
     id 9 
     name rfoot
     direction -0.103069 -0.28318 0.953512   
     length 2.16135  
     axis -90 -7.62852e-016 -20   XYZ
    dof rx rz
    limits (-45.0 90.0)
           (-20.0 70.0)
  end
  begin
     id 10 
     name rtoes
     direction -1.53581e-011 -4.21904e-011 1   
     length 1.07867   
     axis -90 -7.62852e-016 -20   XYZ
    dof rx
    limits (-90.0 20.0)
  end
  begin
     id 11 
     name lowerback
     direction -0.0258961 0.994776 -0.0987407   
     length 2.19412   
     axis 0 0 0   XYZ
    dof rx ry rz
    limits (-20.0 45.0)
           (-30.0 30.0)
           (-30.0 30.0)
  end
  begin
     id 12 
     name upperback
     direction 0.0402454 0.999185 0.00320666   
     length 2.18445   
     axis 0 0 0   XYZ
    dof rx ry rz
    limits (-20.0 45.0)
           (-30.0 30.0)
           (-30.0 30.0)
  end
  begin
     id 13 
     name thorax
     direction 0.0519376 0.997415 0.0496558   
     length 2.21487   
     axis 0 0 0   XYZ
    dof rx ry rz
    limits (-20.0 45.0)
           (-30.0 30.0)
           (-30.0 30.0)
  end
  begin
     id 14 
     name lowerneck
     direction -0.0921276 0.983211 0.157506   
     length 1.61201   
     axis 0 0 0   XYZ
    dof rx ry rz
    limits (-20.0 45.0)
           (-30.0 30.0)
           (-30.0 30.0)
  end
  begin
     id 15 
     name upperneck
     direction 0.0820814 0.98162 -0.172292   
     length 1.65275   
     axis 0 0 0   XYZ
    dof rx ry rz
    limits (-20.0 45.0)
           (-30.0 30.0)
           (-30.0 30.0)
  end
  begin
     id 16
     name head
     direction 0.0336554 0.996413 -0.0776455  
     length 1.66415  
     axis 0 0 0   XYZ
    dof rx ry rz
    limits (-20.0 45.0)
           (-30.0 30.0)
           (-30.0 30.0)
  end
  begin
     id 17 
     name lclavicle
     direction 0.94696 0.284418 -0.149576  
     length 3.41447  
     axis 0 0 0   XYZ
    dof ry rz
    limits (-20.0 10.0)
           (0.0 20.0)
  end
  begin
     id 18 
     name lhumerus
     direction 1 -0.000130264 -9.81312e-005   
     length 5.19964   
     axis 180 -30 -90   XYZ
    dof rx ry rz
    limits (-60.0 90.0)
           (-90.0 90.0)
           (-90.0 90.0)
  end
  begin
     id 19
     name lradius
     direction 1 -4.48961e-011 1.43854e-026   
     length 3.32189   
     axis 180 -30 -90   XYZ
    dof rx
    limits (-10.0 170.0)
  end
  begin
     id 20
     name lwrist
     direction 1 -4.48958e-011 3.1502e-026   
     length 1.66095   
     axis -1.97692e-014 90 90   XYZ
    dof ry
    limits (-180.0 0.0)
 end
  begin
     id 21 
     name lhand
     direction 1 -4.48927e-011 6.3004e-026   
     length 0.645616   
     axis -4.02019e-014 90 90   XYZ
    dof rx rz
    limits (-90.0 90.0)
           (-45.0 45.0)
  end
  begin
     id 22 
     name lfingers
     direction 1 -4.4904e-011 1.26008e-025   
     length 0.520512   
     axis -8.04039e-014 90 90   XYZ
    dof rx
    limits (0.0 90.0)
  end
  begin
     id 23
     name lthumb
     direction 0.707107 -6.34947e-011 0.707107   
     length 0.747354   
     axis -90 45 2.85299e-015   XYZ
    dof rx rz
    limits (-45.0 45.0)
           (-45.0 45.0)
  end
  begin
     id 24 
     name rclavicle
     direction -0.909391 0.383475 -0.161107   
     length 3.25176  
     axis 0 0 0   XYZ 
    dof ry rz
    limits (-10.0 20.0)
           (-20.0 0.0)
  end
  begin
     id 25 
     name rhumerus
     direction -1 -4.48965e-011 -1.81384e-027  
     length 5.6595   
     axis 180 30 90   XYZ
    dof rx ry rz
    limits (-90.0 60.0)
           (-90.0 90.0)
           (-90.0 90.0)
  end
  begin
     id 26 
     name rradius
     direction -1 -4.48996e-011 -8.09397e-027   
     length 3.37604   
     axis 180 30 90   XYZ
    dof rx
    limits (-10.0 170.0)
  end
  begin
     id 27 
     name rwrist
     direction -1 -4.48927e-011 -1.56669e-026   
     length 1.68802   
     axis 1.21142e-014 -90 -90   XYZ
    dof ry
    limits (-180.0 0.0)
  end
  begin
     id 28
     name rhand
     direction -1 -4.48912e-011 -3.13339e-026   
     length 0.824702   
     axis 1.99937e-014 -90 -90   XYZ
    dof rx rz
    limits (-90.0 90.0)
           (-45.0 45.0)
  end
  begin
     id 29
     name rfingers
     direction -1 -4.49011e-011 -6.26677e-026   
     length 0.664896   
     axis 3.99874e-014 -90 -90   XYZ
    dof rx
    limits (0.0 90.0)
  end
  begin
     id 30
     name rthumb
     direction -0.707107 -6.34931e-011 0.707107   
     length 0.954662   
     axis -90 -45 -2.85299e-015   XYZ
    dof rx rz
    limits (-45.0 45.0)
           (-45.0 45.0)
  end
:hierarchy
  begin
    root lhipjoint rhipjoint lowerback
    lhipjoint lfemur
    lfemur ltibia
    ltibia lfoot
    lfoot ltoes
    rhipjoint rfemur
    rfemur rtibia
    rtibia rfoot
    rfoot rtoes
    lowerback upperback
    upperback thorax
    thorax lowerneck lclavicle rclavicle
    lowerneck upperneck
    upperneck head
    lclavicle lhumerus
    lhumerus lradius
    lradius lwrist
    lwrist lhand lthumb
    lhand lfingers
    rclavicle rhumerus
    rhumerus rradius
    rradius rwrist
    rwrist rhand rthumb
    rhand rfingers
  end

#!OML:ASF F:\VICON\USERDATA\INSTALL\rory3\rory3.ASF
:FULLY-SPECIFIED
:DEGREES
1
root 11.934 17.6827 -46.0196 2.96609 -8.08539 -4.84194
lowerback 7.47919 1.78038 -1.79802
upperback 5.42368 2.23792 3.47755
thorax 1.21528 1.01191 4.467
lowerneck -9.69682 3.34339 -13.0451
upperneck 41.5972 6.80347 4.72714
head 15.8134 1.45785 5.42259
rclavicle 6.85807e-015 -1.90833e-014
rhumerus -33.6382 -17.3956 -72.505
rradius 30.4831
rwrist -10.6121
rhand -7.41902 16.4731
rfingers 7.12502
rthumb 18.4678 -12.6703
lclavicle 6.85807e-015 -1.90833e-014
lhumerus -30.458 23.1081 70.7544
lradius 42.362
lwrist -1.9812
lhand -10.2939 36.9332
lfingers 7.12502
lthumb 15.7006 66.3163
rfemur -22.3748 -2.27842 25.7979
rtibia 43.2765
rfoot -21.912 -8.26547
rtoes 24.8584
lfemur -22.1371 -2.80025 -11.6895
ltibia 56.0868
lfoot -16.0058 -0.641676
ltoes -10.0401
2
root 11.9072 17.6818 -46.0089 2.95866 -7.46119 -4.94051
lowerback 7.60746 1.6522 -1.68606
upperback 5.35967 2.07569 3.5328
thorax 1.09439 0.935872 4.46774
lowerneck -9.44358 3.39134 -13.1111
upperneck 41.6843 6.8228 4.81778
head 15.7865 1.46769 5.46933
rclavicle 2.23633e-014 1.35174e-014
rhumerus -33.6217 -17.6168 -72.1331
rradius 30.1468
rwrist -10.1341
rhand -7.05524 16.3515
rfingers 7.12502
rthumb 18.8177 -12.7583
lclavicle 2.23633e-014 1.35174e-014
lhumerus -30.8186 23.0585 70.5198
lradius 42.4721
lwrist -1.91556
lhand -10.4427 37.1325
lfingers 7.12502
lthumb 15.5573 66.5267
rfemur -22.2061 -2.56511 25.999
rtibia 43.2181
rfoot -22.1185 -8.22076
rtoes 25.7663
lfemur -23.1121 -2.90212 -11.2343
ltibia 57.2722
lfoot -14.6194 -1.89734
ltoes -10.6381
3
root 11.8806 17.6791 -45.9965 2.93033 -6.84458 -5.06584
lowerback 7.55865 1.44298 -1.62978
upperback 5.39133 1.80062 3.67763
thorax 1.17688 0.795476 4.60883
lowerneck -9.10563 3.49136 -13.4023
upperneck 41.6094 6.9661 4.86015
head 15.6363 1.50229 5.53131
rclavicle 8.54774e-015 2.8625e-014
rhumerus -33.4509 -17.2208 -71.9384
rradius 30.0721
rwrist -10.0644
rhand -6.97592 15.9489
rfingers 7.12502
rthumb 18.894 -13.1535
lclavicle 8.54774e-015 2.8625e-014
lhumerus -31.2388 23.3228 70.3542
lradius 42.6126
lwrist -1.93081
lhand -10.079 37.0114
lfingers 7.12502
lthumb 15.9075 66.3781
rfemur -21.9581 -2.95905 26.2423
rtibia 43.0392
rfoot -22.3676 -8.17171
rtoes 25.8081
lfemur -23.9908 -3.10488 -10.745
ltibia 58.3295
lfoot -13.3011 -3.17573
ltoes -8.60512
4
root 11.8609 17.6868 -45.979 2.89 -6.52928 -5.18101
lowerback 7.56365 1.5299 -1.31392
upperback 5.68255 1.92709 3.58886
thorax 1.47714 0.859839 4.33381
lowerneck -9.65509 3.26576 -13.3199
upperneck 41.6614 6.67204 4.98584
head 15.8263 1.3974 5.57072
rclavicle -2.34566e-014 3.97569e-015
rhumerus -32.9014 -17.7798 -71.9189
rradius 29.9848
rwrist -10.0443
rhand -6.95303 15.4883
rfingers 7.12502
rthumb 18.916 -13.6119
lclavicle -2.34566e-014 3.97569e-015
lhumerus -30.6685 23.1099 70.5052
lradius 42.5905
lwrist -1.81603
lhand -9.56476 36.2394
lfingers 7.12502
lthumb 16.4027 65.5659
rfemur -21.6993 -3.29419 26.4289
rtibia 42.8373
rfoot -22.389 -8.08988
rtoes 25.6008
lfemur -24.7829 -3.17199 -10.3369
ltibia 59.3307
lfoot -12.1312 -4.24983
ltoes -5.70004
5
root 11.8438 17.6986 -45.9565 2.9552 -6.19392 -5.33772
lowerback 7.5375 1.48648 -1.03525
upperback 5.66014 1.8855 3.60349
thorax 1.47909 0.847058 4.19409
lowerneck -9.59084 3.21055 -13.3793
upperneck 41.7122 6.56652 5.07426
head 15.8434 1.35408 5.60781
rclavicle 9.83984e-015 1.88845e-014
rhumerus -32.7642 -17.5117 -71.9265
rradius 30.0381
rwrist -9.84617
rhand -7.5722 14.7291
rfingers 7.12502
rthumb 18.3204 -14.4281
lclavicle 9.83984e-015 1.88845e-014
lhumerus -30.9727 23.0498 70.3504
lradius 42.6732
lwrist -1.53756
lhand -9.48882 35.6585
lfingers 7.12502
lthumb 16.4759 64.9789
rfemur -21.5193 -3.56669 26.6588
rtibia 42.5905
rfoot -22.3475 -8.03358
rtoes 26.2627
lfemur -25.6586 -3.22119 -9.90197
ltibia 60.2493
lfoot -10.9565 -5.15239
ltoes -5.05665
6
root 11.843 17.7043 -45.9551 2.81596 -6.8451 -5.51996
lowerback 8.05374 1.74616 -0.750467
upperback 5.80564 2.24486 3.62475
thorax 1.32639 1.03408 4.01932
lowerneck -10.0661 3.14333 -13.5122
upperneck 41.7428 6.62438 5.00301
head 15.9722 1.34071 5.63444
rclavicle 4.07509e-015 -1.11319e-014
rhumerus -32.2619 -17.828 -71.5536
rradius 29.7231
rwrist -10.0716
rhand -6.88061 15.4667
rfingers 7.12502
rthumb 18.9856 -13.6267
lclavicle 4.07509e-015 -1.11319e-014
lhumerus -30.9232 23.3165 70.4106
lradius 42.6407
lwrist -1.45774
lhand -9.55547 35.7113
lfingers 7.12502
lthumb 16.4117 65.037
rfemur -21.2336 -3.36668 26.79
rtibia 42.344
rfoot -22.1816 -7.48845
rtoes 26.3145
lfemur -26.1507 -2.56269 -9.62136
ltibia 61.1025
lfoot -9.93661 -5.65887
ltoes -5.62152
7
root 11.8318 17.713 -45.9462 2.84579 -7.33384 -5.66126
lowerback 8.1224 2.0218 -0.564289
upperback 5.50179 2.63169 3.60467
thorax 0.951528 1.24115 3.85399
lowerneck -8.7347 3.26986 -13.1587
upperneck 41.5765 6.5569 4.79274
head 15.5968 1.37153 5.39432
rclavicle -1.55052e-014 1.59028e-015
rhumerus -32.9464 -17.3115 -71.2949
rradius 30.0204
rwrist -10.2912
rhand -7.58563 14.8493
rfingers 7.12502
rthumb 18.3075 -14.3091
lclavicle -1.55052e-014 1.59028e-015
lhumerus -31.6886 22.899 70.1536
lradius 42.5707
lwrist -1.42833
lhand -9.19391 35.6163
lfingers 7.12502
lthumb 16.7598 64.9129
rfemur -21.1029 -3.05303 26.938
rtibia 42.1523
rfoot -22.2178 -7.2114
rtoes 25.7285
lfemur -26.8363 -1.94309 -9.30753
ltibia 61.8772
lfoot -9.18338 -6.212
ltoes -6.0612
8
root 11.8116 17.7167 -45.9289 2.96344 -7.30449 -5.85595
lowerback 7.99938 2.07839 -0.370717
upperback 5.75792 2.70884 3.67915
thorax 1.28551 1.27714 3.82809
lowerneck -9.44564 3.20116 -13.3541
upperneck 41.7304 6.61384 4.88365
head 15.8307 1.35883 5.52235
rclavicle -4.27387e-015 1.90833e-014
rhumerus -32.2649 -17.5141 -71.0097
rradius 29.8272
rwrist -11.043
rhand -6.61631 16.1175
rfingers 7.12502
rthumb 19.2398 -12.9508
lclavicle -4.27387e-015 1.90833e-014
lhumerus -31.2521 23.1973 70.3665
lradius 42.3866
lwrist -1.45057
lhand -8.77298 35.2903
lfingers 7.12502
lthumb 17.165 64.5521
rfemur -21.0593 -2.98156 27.2383
rtibia 42.0384
rfoot -22.291 -7.36805
rtoes 25.5748
lfemur -27.595 -1.67361 -8.83472
ltibia 62.5917
lfoot -8.93747 -6.70691
ltoes -8.40866
9
root 11.7913 17.7115 -45.9106 3.06267 -6.98911 -5.99768
lowerback 7.82965 2.09519 -0.187412
upperback 5.52225 2.74819 3.67621
thorax 1.13906 1.30627 3.71826
lowerneck -8.46143 3.21963 -13.1313
upperneck 41.615 6.41475 4.85935
head 15.5656 1.32914 5.39221
rclavicle -4.37326e-015 1.86858e-014
rhumerus -32.7773 -17.3971 -70.6967
rradius 30.0951
rwrist -11.6226
rhand -6.46805 16.2534
rfingers 7.12502
rthumb 19.3824 -12.8006
lclavicle -4.37326e-015 1.86858e-014
lhumerus -31.8642 22.8126 70.1374
lradius 42.2966
lwrist -1.40306
lhand -8.55883 35.0498
lfingers 7.12502
lthumb 17.3711 64.2936
rfemur -21.0427 -3.09624 27.5004
rtibia 41.9897
rfoot -22.3135 -7.55665
rtoes 26.4504
lfemur -28.3384 -1.72551 -8.4101
ltibia 63.231
lfoot -9.36393 -6.89633
ltoes -12.3502
10
root 11.7758 17.7057 -45.8972 3.1575 -6.74894 -6.06461
lowerback 7.44697 1.81535 -0.431201
upperback 5.06964 2.37245 3.95199
thorax 0.884924 1.11621 4.17143
lowerneck -6.57598 3.63766 -13.1833
upperneck 41.282 6.8529 4.40924
head 14.9349 1.49696 5.14059
rclavicle 2.98177e-015 -3.33958e-014
rhumerus -33.3602 -15.652 -70.4939
rradius 30.4286
rwrist -12.0059
rhand -7.30296 15.5074
rfingers 7.12502
rthumb 18.5794 -13.6253
lclavicle 2.98177e-015 -3.33958e-014
lhumerus -33.7668 23.3579 69.5335
lradius 42.3767
lwrist -1.43936
lhand -8.34983 34.6382
lfingers 7.12502
lthumb 17.5722 63.8641
rfemur -21.082 -3.12376 27.6454
rtibia 42.0095
rfoot -22.3747 -7.62196
rtoes 26.9287
lfemur -29.081 -1.84419 -8.09747
ltibia 63.7969
lfoot -10.0338 -7.23912
ltoes -13.0606
11
root 11.7644 17.7029 -45.8934 3.28354 -6.43464 -6.20315
lowerback 8.0302 1.63193 -0.276614
upperback 4.49796 2.16803 4.02975
thorax -0.0115582 1.03177 4.15178
lowerneck -5.87343 3.8771 -13.1399
upperneck 41.3837 7.14962 4.22241
head 14.809 1.60869 5.05725
rclavicle -1.2424e-014 -2.46493e-014
rhumerus -33.8515 -14.2282 -70.6147
rradius 30.8335
rwrist -12.1117
rhand -8.82547 14.4202
rfingers 7.12502
rthumb 17.1144 -14.846
lclavicle -1.2424e-014 -2.46493e-014
lhumerus -35.1525 23.3972 69.0011
lradius 42.3972
lwrist -1.28405
lhand -8.07128 34.4797
lfingers 7.12502
lthumb 17.8403 63.6814
rfemur -21.162 -3.24997 27.8674
rtibia 41.9363
rfoot -22.4303 -7.85796
rtoes 25.8677
lfemur -29.8555 -2.04883 -7.70886
ltibia 64.2172
lfoot -10.5134 -7.87117
ltoes -10.6316
12
root 11.7518 17.6995 -45.8957 3.45782 -5.87823 -6.19614
lowerback 8.05685 1.4434 -0.343189
upperback 4.50218 1.9151 4.17096
thorax -0.00912035 0.902588 4.35806
lowerneck -5.99078 3.91441 -13.293
upperneck 41.2901 7.30587 4.08071
head 14.7799 1.64107 5.04034
rclavicle 4.37326e-015 -7.03698e-014
rhumerus -33.2994 -14.5159 -69.9537
rradius 30.5036
rwrist -12.6365
rhand -7.57068 15.8746
rfingers 7.12502
rthumb 18.3219 -13.2825
lclavicle 4.37326e-015 -7.03698e-014
lhumerus -35.2417 24.0222 69.0895
lradius 42.0881
lwrist -1.35789
lhand -7.86409 34.585
lfingers 7.12502
lthumb 18.0396 63.7684
rfemur -21.3297 -3.58744 27.957
rtibia 41.8822
rfoot -22.5652 -8.14241
rtoes 25.0152
lfemur -30.7579 -2.4762 -7.4628
ltibia 64.5038
lfoot -10.8859 -8.3137
ltoes -9.1879
13
root 11.7693 17.7149 -45.8085 2.9699 -7.48024 -6.22541
lowerback 7.70164 1.94261 -0.0892705
upperback 4.98279 2.56777 4.09669
thorax 0.647639 1.22242 4.10446
lowerneck -6.22405 3.89445 -13.4445
upperneck 41.3467 7.36086 4.07357
head 14.8531 1.63494 5.08477
rclavicle -1.0138e-014 1.98785e-015
rhumerus -32.8785 -14.5332 -69.6356
rradius 30.4959
rwrist -12.5906
rhand -7.65126 16.3386
rfingers 7.12502
rthumb 18.2444 -12.8258
lclavicle -1.0138e-014 1.98785e-015
lhumerus -35.3002 24.6197 69.1054
lradius 41.6333
lwrist -1.61528
lhand -7.74451 34.2588
lfingers 7.12502
lthumb 18.1547 63.4315
rfemur -20.3034 -3.0284 27.7625
rtibia 41.7261
rfoot -22.4878 -7.26782
rtoes 24.9595
lfemur -29.6957 -1.51024 -7.55337
ltibia 64.4619
lfoot -11.7426 -7.96696
ltoes -9.6073
14
root 11.7655 17.7142 -45.7857 2.98036 -7.63878 -6.17363
lowerback 7.64051 1.97793 -0.120094
upperback 5.05621 2.60876 4.13109
thorax 0.751872 1.23995 4.15871
lowerneck -6.44898 3.89261 -13.619
upperneck 41.4431 7.45321 4.05387
head 14.9415 1.63613 5.13389
rclavicle 1.3418e-014 2.46493e-014
rhumerus -32.4638 -14.1567 -69.57
rradius 30.6729
rwrist -12.5324
rhand -8.34906 16.6473
rfingers 7.12502
rthumb 17.5729 -12.5785
lclavicle 1.3418e-014 2.46493e-014
lhumerus -35.5237 25.1942 69.0826
lradius 41.2302
lwrist -1.79589
lhand -7.7115 33.8062
lfingers 7.12502
lthumb 18.1864 62.9761
rfemur -20.2009 -2.89473 27.7064
rtibia 41.6583
rfoot -22.2911 -7.30247
rtoes 25.2993
lfemur -30.0257 -1.39724 -7.46557
ltibia 64.4006
lfoot -11.6909 -7.98175
ltoes -9.46744
15
root 11.7616 17.7177 -45.7628 2.96057 -7.69044 -6.09379
lowerback 7.47007 1.96392 -0.227093
upperback 5.21751 2.57469 4.21423
thorax 1.00816 1.21476 4.31874
lowerneck -6.56047 3.92229 -13.8056
upperneck 41.387 7.59092 3.95659
head 14.9274 1.65804 5.14139
rclavicle 1.65985e-014 1.43125e-014
rhumerus -31.8624 -13.7961 -69.5224
rradius 30.9341
rwrist -12.4593
rhand -9.18337 16.4857
rfingers 7.12502
rthumb 16.7699 -12.81
lclavicle 1.65985e-014 1.43125e-014
lhumerus -35.6527 25.8425 69.1628
lradius 40.8293
lwrist -1.85876
lhand -7.60189 33.5117
lfingers 7.12502
lthumb 18.2919 62.6717
rfemur -20.0548 -2.83654 27.6243
rtibia 41.554
rfoot -22.2166 -7.33852
rtoes 25.5325
lfemur -30.2496 -1.46867 -7.39663
ltibia 64.1861
lfoot -11.6906 -7.76568
ltoes -9.72687
